<svg xmlns="http://www.w3.org/2000/svg" width="24" height="40" viewBox="0 0 35 51">
  <g id="logomark" transform="translate(-306.427 -156.274)">
    <g id="Group_3" data-name="Group 3">
      <path id="Path_5" data-name="Path 5" d="M337.39,207.274l-17.155-12.1v12.1l-1.935-.288a14.063,14.063,0,0,1-7.748-3.8c-2.66-2.566-4.125-7.568-4.125-11.209v-35.7h1.687a14.156,14.156,0,0,1,9.891,3.959,13.287,13.287,0,0,1,4.125,9.625,12.591,12.591,0,0,1-.257,2.523l19.554-8.212-4.563,15.4a7.733,7.733,0,0,1-4.255,4.833l-.6.27,1.352,1.011a7.606,7.606,0,0,1,3.069,5.636ZM309.8,159.767v32.209c0,2.72,1.1,6.863,3.1,8.789a10.651,10.651,0,0,0,3.964,2.422v-16.8l3.048,4.153a4.414,4.414,0,0,0,1.013,1l12.679,8.945-.538-8.958a4.251,4.251,0,0,0-1.724-3.144l-5.914-4.42,5.788-2.62a4.37,4.37,0,0,0,2.413-2.721l2.545-8.589L321.8,176.065a4.469,4.469,0,0,0-.505.251l-.17.1c-.047.03-.089.057-.13.085-.1.066-.169.118-.24.175l-.255.214a4.3,4.3,0,0,0-.4.418l-.1.12c-.028.036-.055.073-.082.109l-5.261,7.264,2.26-8.673a8.184,8.184,0,0,1,.706-1.819,9.433,9.433,0,0,0,1.134-4.454,9.952,9.952,0,0,0-3.1-7.205A10.721,10.721,0,0,0,309.8,159.767Z" fill="#f32a5b"/>
    </g>
  </g>
</svg>