<svg xmlns="http://www.w3.org/2000/svg" width="147.2" height="384.476" viewBox="0 0 147.2 384.476">
  <g id="wordmark_copy" data-name="wordmark copy" transform="matrix(0, -1, 1, 0, -451.288, 1123.857)">
    <g id="Group_1" data-name="Group 1">
      <path id="Path_1" data-name="Path 1" d="M1037.213,523.851c-9.285,0-15.582,5.489-17.435,15.846h33.668C1052.553,529.107,1046.256,523.851,1037.213,523.851Z" fill="#f32a5b"/>
      <path id="Path_2" data-name="Path 2" d="M1099.309,550.132a24.6,24.6,0,0,0-9.14,1.749,23.9,23.9,0,0,0-4.968,2.652c-.154.106-.3.224-.447.332a77.049,77.049,0,0,0,.564-10.349l-.029-1.078c-.524-13.4-4.919-24.843-12.8-33.228-8.655-9.21-20.86-14.088-35.278-14.088-14.379,0-27.264,5.334-36.287,15.02a46,46,0,0,0-5.8,7.722c-5.454-14.5-18.1-22.743-36.066-22.743a42.327,42.327,0,0,0-15.437,2.72l-.019-1.185H914.156a22.816,22.816,0,0,0,2.261-9.91c0-12.854-10.76-23.318-23.985-23.318a24.027,24.027,0,0,0-13.244,3.956V464.43H836.4V475.6l-52.606,22.175a36.479,36.479,0,0,0,.739-7.282,38.42,38.42,0,0,0-11.861-27.779,40.626,40.626,0,0,0-28.44-11.427h-4.851V554.335c0,10.508,4.212,24.947,11.86,32.352a40.384,40.384,0,0,0,22.28,10.97l5.565.83V563.56l49.328,34.928-2.754-46.048a21.978,21.978,0,0,0-8.822-16.267l-3.889-2.918,1.715-.78A22.3,22.3,0,0,0,826.9,518.527l9.5-32.182V598.487H946.136V549.569c0-11.96,4.754-11.96,6.782-11.96a7.658,7.658,0,0,1,1.747.155,14.321,14.321,0,0,1,.679,5.256v55.467h42.8v-17.87c8.827,11.271,22.682,17.87,39.722,17.87,16.677,0,29.991-6.037,38.117-16.737a24.472,24.472,0,1,0,23.329-31.618ZM817.6,515.775a12.6,12.6,0,0,1-6.939,7.853l-16.644,7.564,17.007,12.756a12.285,12.285,0,0,1,4.955,9.074l1.547,25.856L781.063,553.06a12.639,12.639,0,0,1-2.913-2.872L769.384,538.2v48.494a30.611,30.611,0,0,1-11.4-6.991c-5.742-5.558-8.9-17.517-8.9-25.368V461.37a30.777,30.777,0,0,1,16.843,8.327,28.777,28.777,0,0,1,8.9,20.8,27.292,27.292,0,0,1-3.262,12.855,23.674,23.674,0,0,0-2.028,5.252l-6.5,25.031,15.127-20.964c.077-.106.155-.213.235-.316l.284-.347a12.63,12.63,0,0,1,1.152-1.206l.733-.616c.2-.163.407-.315.689-.5.116-.082.237-.157.372-.245l.488-.3a13.171,13.171,0,0,1,1.453-.724l41.341-17.427ZM868.613,587.9H846.976V475.02h21.637Zm23.82-112.936c7.267,0,13.409,5.713,13.409,12.786,0,7.16-6.142,12.873-13.409,12.873a13.166,13.166,0,0,1-13.244-12.873C879.188,480.675,885.33,474.962,892.432,474.962Zm10.906,112.994H881.692V508.743h21.646Zm84.218-.058H965.919V543.02c0-10.911-3.959-16.011-13-16.011-10.333,0-17.358,7.365-17.358,22.56V587.9H913.923v-79.64h19.211l.165,15.759c3.959-10.833,12.439-17.3,25.76-17.3,20.1,0,28.5,12.213,28.5,30.245Zm50.22-17.372c9.693,0,15.262-3.585,17.28-10.755l18.25,2.788c-3.629,16.886-17.038,25.494-35.443,25.494-24.927,0-39.51-16.644-39.722-40.193v-1c.212-23.091,15.343-40.3,39.072-40.3,23.335,0,37.549,15.458,37.549,39.592a56.89,56.89,0,0,1-.4,7.015h-54.751C1021.311,564.55,1027.608,570.526,1037.776,570.526Zm61.533,17.527a13.984,13.984,0,0,1-13.972-13.777,12.949,12.949,0,0,1,.175-2.128,13.953,13.953,0,1,1,13.8,15.9Z" fill="#f32a5b"/>
    </g>
  </g>
</svg>
